<!--
  ~ Copyright (c) 2016. Mike Amato, All Rights Reserved.
  -->

<svg version="1.0" xmlns="http://www.w3.org/2000/svg"
     width="400.000000pt" height="400.000000pt" viewBox="0 0 400.000000 400.000000"
     preserveAspectRatio="xMidYMid meet">
    <g transform="translate(0.000000,400.000000) scale(0.100000,-0.100000)"
       fill="#000000" stroke="none">
        <path d="M1720 3650 c-260 -47 -463 -130 -670 -271 -564 -386 -837 -1078 -686
-1739 131 -570 547 -1031 1097 -1214 204 -68 287 -81 539 -81 252 0 335 13
539 81 343 114 650 348 853 649 379 563 379 1297 0 1860 -243 361 -617 610
-1057 705 -147 32 -467 37 -615 10z m455 -160 c3 -5 15 -10 26 -10 10 0 19 5
19 10 0 6 7 10 15 10 8 0 15 -4 15 -10 0 -5 10 -10 22 -10 40 0 5 -19 -42 -22
l-45 -4 48 -13 47 -13 0 -133 0 -133 40 -36 c22 -20 44 -36 49 -36 5 0 30 23
56 52 l46 52 112 -112 112 -112 -220 -1 c-121 0 -214 -3 -207 -6 7 -3 95 -17
195 -31 l182 -27 3 -77 3 -78 72 -1 c508 -9 223 -15 -708 -16 -802 0 -1076 3
-905 8 135 5 251 11 258 14 6 2 12 20 12 40 0 34 1 35 36 35 31 0 35 2 24 15
-7 8 -34 15 -67 17 l-56 3 178 154 c163 142 180 153 198 141 12 -7 95 -76 184
-154 l164 -141 -55 -3 c-32 -2 -59 -9 -66 -17 -11 -13 1 -15 89 -15 55 0 101
2 101 4 0 3 -328 289 -358 312 -12 9 10 33 119 127 73 65 137 117 142 117 4 0
27 -18 51 -40 24 -22 47 -40 51 -40 4 0 5 38 4 85 -3 63 -1 85 9 85 6 0 12 5
12 10 0 6 6 10 14 10 8 0 18 -4 21 -10z m-1020 -988 l90 -17 3 -98 3 -97 -35
0 c-37 0 -46 12 -46 61 0 41 -29 65 -97 79 -107 23 -204 -13 -243 -89 -43 -86
-50 -249 -14 -353 40 -119 189 -171 312 -111 37 18 40 24 58 121 4 18 11 22
40 22 l35 0 -3 -102 -3 -103 -70 -19 c-50 -13 -106 -19 -195 -19 -160 -1 -217
18 -301 103 -47 47 -61 68 -78 124 -49 157 -8 347 91 432 94 79 259 103 453
66z m531 -203 c50 -116 95 -209 100 -208 5 1 50 95 101 208 l92 206 156 3 155
3 0 -31 c0 -30 -5 -33 -65 -42 -19 -3 -20 -12 -23 -289 l-2 -287 22 -6 c13 -3
33 -6 46 -6 19 0 22 -5 22 -35 l0 -35 -190 0 -190 0 0 35 c0 30 3 35 23 35 12
0 32 3 45 6 22 6 22 8 22 188 0 132 -3 177 -11 166 -9 -12 -9 -11 -3 5 10 27
18 91 11 85 -4 -3 -58 -120 -120 -260 -101 -224 -117 -255 -139 -258 -22 -3
-31 14 -138 258 l-115 261 -3 -217 c-1 -119 0 -219 2 -221 2 -3 23 -7 45 -10
39 -5 41 -7 41 -39 l0 -34 -140 0 -140 0 0 35 c0 30 3 35 23 35 12 0 32 3 45
6 l22 6 -2 287 c-3 277 -4 286 -23 289 -60 9 -65 12 -65 42 l0 30 153 0 152 0
91 -211z m997 101 c115 -268 140 -321 147 -313 5 4 50 101 100 216 l92 207
154 0 154 0 0 -30 c0 -30 -5 -33 -65 -42 -19 -3 -20 -12 -23 -289 l-2 -287 22
-6 c13 -3 33 -6 46 -6 19 0 22 -5 22 -35 l0 -35 -190 0 -190 0 0 35 c0 32 2
35 31 35 17 0 39 5 50 10 18 10 19 23 19 191 0 135 -3 178 -12 173 -8 -5 -9
-2 -3 12 14 33 19 80 7 69 -6 -5 -62 -125 -124 -265 -101 -225 -117 -255 -139
-258 -22 -3 -31 13 -124 225 -151 345 -134 336 -135 77 0 -222 0 -222 23 -228
12 -3 32 -6 45 -6 19 0 22 -5 22 -35 l0 -35 -141 0 -140 0 3 32 c2 24 9 34 23
36 11 1 30 5 43 8 l22 4 0 290 0 290 -29 0 c-47 0 -61 10 -61 41 l0 29 153 0
152 0 48 -110z m-166 -1143 c-363 -6 -777 -6 -1110 0 -510 9 -487 9 578 9
1098 0 1104 0 532 -9z"/>
    </g>
</svg>